<svg viewBox="0 0 1440 400" xmlns="http://www.w3.org/2000/svg" class="transition duration-300 ease-in-out delay-150"><path d="M1440 0v200c-42.393-22.317-84.785-44.635-131-51-46.215-6.365-96.251 3.222-132 9-35.749 5.778-57.209 7.748-105 6-47.791-1.748-121.912-7.213-168 15-46.088 22.213-64.141 72.105-106 75-41.859 2.895-107.522-41.207-163-55-55.478-13.793-100.769 2.721-135 22-34.231 19.279-57.402 41.322-91 51-33.598 9.678-77.622 6.99-132-17-54.378-23.99-119.108-69.283-167-82-47.892-12.717-78.946 7.141-110 27V0z" fill="#333333ff" class="transition-all duration-300 ease-in-out delay-150 path-0"/></svg>