<svg width="21" height="21" fill="#333" xmlns="http://www.w3.org/2000/svg"><path d="M20.13 6.933l-.005-.052a.708.708 0 00-.06-.187l-2.94-5.271S16.75.906 16.66.906H4.127L.357 6.515l-.044.052-.006.024a.969.969 0 00-.078.18l-.016.05a.902.902 0 00.007.492l.017.056a.907.907 0 00.087.182l9.113 12.85.019.03a.831.831 0 00.173.181l.053.037a.896.896 0 00.186.097l.051.019c.09.025.167.037.242.037a.877.877 0 00.253-.04l.061-.024a.87.87 0 00.18-.099l.041-.028a.762.762 0 00.158-.162l9.124-12.864a.96.96 0 00.153-.409l.007-.066.004-.053-.011-.124zm-4.892-.342l1.299-2.617 1.298 2.617h-2.597zm-.779 1.55h3.082l-5.136 7.243 2.054-7.243zm-.762-2.335L11.82 2.973h3.282l-1.406 2.833zM7.688 8.141h4.948l-2.474 8.722L7.688 8.14zm.49-1.55l1.983-2.995 1.983 2.995H8.18zM6.783 5.57l-.86-2.598h2.58l-1.72 2.599zm1.137 9.813L2.783 8.141h3.082l2.054 7.243zM4.435 3.992l.86 2.599h-2.58l1.72-2.599z"/></svg>